<svg xmlns="http://www.w3.org/2000/svg" xmlns:xlink="http://www.w3.org/1999/xlink" width="500" zoomAndPan="magnify" viewBox="0 0 375 374.999991" height="500" preserveAspectRatio="xMidYMid meet" version="1.2"><defs><clipPath id="6b0e0e2279"><path d="M 75 75 L 218 75 L 218 218 L 75 218 Z M 75 75 "/></clipPath><clipPath id="86b430016f"><path d="M 26.910156 152.113281 L 191.3125 -12.289062 L 347.761719 144.15625 L 183.359375 308.558594 Z M 26.910156 152.113281 "/></clipPath><clipPath id="990d19bce1"><path d="M 26.910156 152.113281 L 191.3125 -12.289062 L 347.761719 144.15625 L 183.359375 308.558594 Z M 26.910156 152.113281 "/></clipPath><clipPath id="a8e7844061"><path d="M 156 78 L 300 78 L 300 222 L 156 222 Z M 156 78 "/></clipPath><clipPath id="f02dccf6c6"><path d="M 26.910156 152.113281 L 191.3125 -12.289062 L 347.761719 144.15625 L 183.359375 308.558594 Z M 26.910156 152.113281 "/></clipPath><clipPath id="579a12a184"><path d="M 26.910156 152.113281 L 191.3125 -12.289062 L 347.761719 144.15625 L 183.359375 308.558594 Z M 26.910156 152.113281 "/></clipPath></defs><g id="bdd99baef0"><rect x="0" width="375" y="0" height="374.999991" style="fill:#ffffff;fill-opacity:1;stroke:none;"/><rect x="0" width="375" y="0" height="374.999991" style="fill:#1a2f4b;fill-opacity:1;stroke:none;"/><g clip-rule="nonzero" clip-path="url(#6b0e0e2279)"><g clip-rule="nonzero" clip-path="url(#86b430016f)"><g clip-rule="nonzero" clip-path="url(#990d19bce1)"><path style=" stroke:none;fill-rule:nonzero;fill:#5ce1e6;fill-opacity:1;" d="M 191.28125 168.515625 C 191.28125 174.5625 188.929688 180.246094 184.652344 184.519531 C 180.378906 188.792969 174.695312 191.148438 168.652344 191.148438 L 104.828125 191.148438 C 103.800781 191.148438 103.109375 190.667969 102.707031 190.269531 C 102.308594 189.867188 101.828125 189.175781 101.832031 188.148438 L 101.828125 124.324219 C 101.828125 118.085938 104.367188 112.429688 108.464844 108.332031 C 112.5625 104.234375 118.222656 101.695312 124.460938 101.695312 L 152.714844 101.695312 L 179.332031 75.078125 L 124.460938 75.078125 C 111.304688 75.078125 98.9375 80.199219 89.636719 89.503906 C 80.335938 98.804688 75.210938 111.171875 75.214844 124.328125 L 75.214844 188.148438 C 75.214844 196.058594 78.296875 203.5 83.886719 209.089844 C 89.480469 214.683594 96.917969 217.765625 104.832031 217.765625 L 168.652344 217.765625 C 181.804688 217.765625 194.171875 212.640625 203.476562 203.339844 C 212.777344 194.039062 217.898438 181.671875 217.902344 168.515625 L 217.898438 113.644531 L 191.28125 140.261719 L 191.28125 168.515625 "/></g></g></g><g clip-rule="nonzero" clip-path="url(#a8e7844061)"><g clip-rule="nonzero" clip-path="url(#f02dccf6c6)"><g clip-rule="nonzero" clip-path="url(#579a12a184)"><path style=" stroke:none;fill-rule:nonzero;fill:#2a4ff6;fill-opacity:1;" d="M 290.71875 87.117188 C 285.125 81.523438 277.6875 78.441406 269.777344 78.441406 L 205.953125 78.441406 C 192.800781 78.441406 180.433594 83.566406 171.132812 92.867188 C 161.828125 102.167969 156.707031 114.535156 156.707031 127.6875 L 156.707031 182.5625 L 183.324219 155.945312 L 183.324219 127.6875 C 183.324219 121.449219 185.863281 115.792969 189.960938 111.695312 C 194.0625 107.597656 199.714844 105.058594 205.957031 105.058594 L 269.78125 105.058594 C 270.804688 105.058594 271.496094 105.535156 271.898438 105.9375 C 272.300781 106.335938 272.777344 107.03125 272.777344 108.054688 L 272.777344 171.878906 C 272.777344 177.921875 270.421875 183.609375 266.148438 187.882812 C 261.875 192.15625 256.191406 194.511719 250.148438 194.511719 L 221.890625 194.511719 L 195.277344 221.128906 L 250.144531 221.128906 C 263.300781 221.128906 275.667969 216.007812 284.96875 206.703125 C 294.269531 197.402344 299.394531 185.035156 299.394531 171.878906 L 299.394531 108.054688 C 299.394531 100.148438 296.3125 92.707031 290.71875 87.117188 "/></g></g></g><g style="fill:#ffffff;fill-opacity:1;"><g transform="translate(33.527396, 314.225631)"><path style="stroke:none" d="M 16.21875 -9.859375 L 34.9375 -9.859375 L 34.9375 0 L 5.59375 0 L 5.59375 -48.90625 L 16.21875 -48.90625 Z M 16.21875 -9.859375 "/></g></g><g style="fill:#ffffff;fill-opacity:1;"><g transform="translate(69.991161, 314.225631)"><path style="stroke:none" d="M 46.328125 -48.90625 L 29.140625 -19.78125 L 29.140625 0 L 18.234375 0 L 18.234375 -19.84375 L 1.1875 -48.90625 L 12.4375 -48.90625 L 23.75 -29.34375 L 35.078125 -48.90625 Z M 46.328125 -48.90625 "/></g></g><g style="fill:#ffffff;fill-opacity:1;"><g transform="translate(117.421989, 314.225631)"><path style="stroke:none" d="M 36.609375 -48.90625 L 46.953125 -48.90625 L 46.953125 0 L 38.15625 0 L 16 -30.53125 L 16 0 L 5.59375 0 L 5.59375 -48.90625 L 15.15625 -48.90625 L 36.609375 -19.078125 Z M 36.609375 -48.90625 "/></g></g><g style="fill:#ffffff;fill-opacity:1;"><g transform="translate(169.95216, 314.225631)"><path style="stroke:none" d="M 46.390625 0 L 33.46875 0 L 16.21875 -23.890625 L 16.21875 0 L 5.59375 0 L 5.59375 -48.90625 L 16.21875 -48.90625 L 16.21875 -26.34375 L 32.21875 -48.90625 L 44.578125 -48.90625 L 27.875 -25.5 Z M 46.390625 0 "/></g></g><g style="fill:#ffffff;fill-opacity:1;"><g transform="translate(215.776352, 314.225631)"><path style="stroke:none" d="M 38.078125 0 L 34.65625 -9.296875 L 15.15625 -9.296875 L 11.8125 0 L 0.625 0 L 19.78125 -48.90625 L 29.765625 -48.90625 L 49.546875 0 Z M 24.875 -35.984375 L 18.515625 -18.515625 L 31.296875 -18.515625 Z M 24.875 -35.984375 "/></g></g><g style="fill:#ffffff;fill-opacity:1;"><g transform="translate(265.931496, 314.225631)"><path style="stroke:none" d="M 16.21875 -9.859375 L 35.703125 -9.859375 L 35.703125 0 L 5.59375 0 L 5.59375 -48.90625 L 34.9375 -48.90625 L 34.9375 -39.125 L 16.21875 -39.125 L 16.21875 -29.484375 L 33.125 -29.484375 L 33.125 -19.921875 L 16.21875 -19.921875 Z M 16.21875 -9.859375 "/></g></g><g style="fill:#ffffff;fill-opacity:1;"><g transform="translate(304.979858, 314.225631)"><path style="stroke:none" d="M 16.21875 -9.859375 L 34.9375 -9.859375 L 34.9375 0 L 5.59375 0 L 5.59375 -48.90625 L 16.21875 -48.90625 Z M 16.21875 -9.859375 "/></g></g></g></svg>