<svg xmlns="http://www.w3.org/2000/svg" xmlns:xlink="http://www.w3.org/1999/xlink" width="500" zoomAndPan="magnify" viewBox="0 0 375 374.999991" height="500" preserveAspectRatio="xMidYMid meet" version="1.2"><defs><clipPath id="af2041087b"><path d="M 4 68 L 238 68 L 238 301 L 4 301 Z M 4 68 "/></clipPath><clipPath id="fa5a130c29"><path d="M -73.816406 194.027344 L 194.003906 -73.792969 L 448.558594 180.765625 L 180.742188 448.585938 Z M -73.816406 194.027344 "/></clipPath><clipPath id="21c36fa809"><path d="M -73.816406 194.027344 L 194.003906 -73.792969 L 448.558594 180.765625 L 180.742188 448.585938 Z M -73.816406 194.027344 "/></clipPath><clipPath id="0b197170d9"><path d="M 137 74 L 370 74 L 370 307 L 137 307 Z M 137 74 "/></clipPath><clipPath id="f4ae82413b"><path d="M -73.816406 194.027344 L 194.003906 -73.792969 L 448.558594 180.765625 L 180.742188 448.585938 Z M -73.816406 194.027344 "/></clipPath><clipPath id="aa8b07ce82"><path d="M -73.816406 194.027344 L 194.003906 -73.792969 L 448.558594 180.765625 L 180.742188 448.585938 Z M -73.816406 194.027344 "/></clipPath></defs><g id="547c58f832"><g clip-rule="nonzero" clip-path="url(#af2041087b)"><g clip-rule="nonzero" clip-path="url(#fa5a130c29)"><g clip-rule="nonzero" clip-path="url(#21c36fa809)"><path style=" stroke:none;fill-rule:nonzero;fill:#5ce1e6;fill-opacity:1;" d="M 193.746094 220.730469 C 193.742188 230.570312 189.914062 239.820312 182.957031 246.777344 C 175.996094 253.734375 166.746094 257.566406 156.90625 257.566406 L 53.019531 257.566406 C 51.347656 257.566406 50.21875 256.789062 49.566406 256.136719 C 48.917969 255.484375 48.136719 254.355469 48.140625 252.683594 L 48.136719 148.796875 C 48.136719 138.640625 52.269531 129.433594 58.941406 122.765625 C 65.609375 116.09375 74.824219 111.964844 84.976562 111.960938 L 130.964844 111.960938 L 174.292969 68.636719 L 84.976562 68.636719 C 63.5625 68.636719 43.433594 76.972656 28.292969 92.113281 C 13.148438 107.253906 4.808594 127.386719 4.8125 148.800781 L 4.816406 252.6875 C 4.8125 265.5625 9.828125 277.671875 18.929688 286.773438 C 28.035156 295.878906 40.140625 300.890625 53.023438 300.894531 L 156.90625 300.894531 C 178.316406 300.894531 198.449219 292.554688 213.589844 277.414062 C 228.730469 262.273438 237.070312 242.140625 237.074219 220.730469 L 237.070312 131.414062 L 193.742188 174.738281 L 193.746094 220.730469 "/></g></g></g><g clip-rule="nonzero" clip-path="url(#0b197170d9)"><g clip-rule="nonzero" clip-path="url(#f4ae82413b)"><g clip-rule="nonzero" clip-path="url(#aa8b07ce82)"><path style=" stroke:none;fill-rule:nonzero;fill:#2a4ff6;fill-opacity:1;" d="M 355.605469 88.230469 C 346.496094 79.125 334.390625 74.113281 321.515625 74.109375 L 217.628906 74.109375 C 196.21875 74.109375 176.085938 82.449219 160.945312 97.589844 C 145.800781 112.730469 137.464844 132.859375 137.464844 154.273438 L 137.464844 243.589844 L 180.792969 200.265625 L 180.792969 154.273438 C 180.792969 144.117188 184.925781 134.910156 191.59375 128.242188 C 198.265625 121.566406 207.472656 117.433594 217.628906 117.4375 L 321.519531 117.433594 C 323.1875 117.433594 324.316406 118.214844 324.96875 118.867188 C 325.621094 119.519531 326.398438 120.644531 326.398438 122.316406 L 326.398438 226.203125 C 326.398438 236.039062 322.566406 245.296875 315.605469 252.253906 C 308.648438 259.210938 299.398438 263.039062 289.5625 263.042969 L 243.570312 263.042969 L 200.242188 306.367188 L 289.558594 306.367188 C 310.972656 306.367188 331.101562 298.03125 346.242188 282.890625 C 361.382812 267.75 369.726562 247.617188 369.722656 226.203125 L 369.722656 122.316406 C 369.722656 109.441406 364.707031 97.332031 355.605469 88.230469 "/></g></g></g></g></svg>